<svg xmlns="http://www.w3.org/2000/svg" width="119.97382401289406" height="32.10471293592991" fill="none" style=""><rect id="backgroundrect" width="100%" height="100%" x="0" y="0" fill="none" stroke="none" class="selected" style=""/>

 <g style="" class="currentLayer">
  <title>Layer 1</title>
  <g id="svg_5" class="">
   <rect id="svg_1" fill="#E3B873" rx="0.7716699838638306" height="1.5433399677276611" width="32" y="13.869592666625977" x="2.2570457458496094"/>
   <rect id="svg_2" fill="#E3B873" rx="0.7716699838638306" height="1.5433399677276611" width="32" y="13.869592666625977" x="84.25654602050781"/>
   <path id="svg_3" fill="#E3B873" d="m76.10754602050781,9.823092391967773 l-24.1204,-8.9362 c-0.30850000000000005,-0.11400000000000002 -0.6513000000000001,0.04380000000000001 -0.7651000000000001,0.35250000000000004 c-0.00020000000000000006,0.0003000000000000001 -0.00020000000000000006,0.0005000000000000001 -0.0005000000000000001,0.0008000000000000003 l-2.6701,7.2681000000000004 c-0.11350000000000002,0.3088000000000001 0.04470000000000001,0.6513000000000001 0.35350000000000004,0.7648000000000001 l0.0005000000000000001,0 l2.7959,1.0266 l-0.6160000000000001,1.6783000000000001 c-0.11330000000000001,0.3088000000000001 0.04500000000000001,0.6508000000000002 0.3537,0.7643000000000001 l5.5928,2.0533 l-0.41100000000000003,1.1189 c-0.37350000000000005,1.002 -0.025000000000000005,2.1301 0.8491000000000001,2.7463 l0,3.0402 l-8.016,0 c-0.38800000000000007,-0.8870000000000001 -1.182,-1.5311 -2.1303,-1.7276000000000002 l0,-1.251 c0,-0.32910000000000006 -0.2665,-0.5958000000000001 -0.5958000000000001,-0.5958000000000001 l-2.4019,0 c-0.32900000000000007,0 -0.5958000000000001,0.2667 -0.5958000000000001,0.5958000000000001 l0,9.5317 c0,0.3293000000000001 0.26680000000000004,0.5958000000000001 0.5958000000000001,0.5958000000000001 l2.4019,0 c0.3293000000000001,0 0.5958000000000001,-0.2665 0.5958000000000001,-0.5958000000000001 l0,-1.2508 c0.9483,-0.19680000000000003 1.7423000000000002,-0.8406000000000001 2.1303,-1.7279 l8.016,0 l0,0.5958000000000001 c0,0.9871 0.8,1.7873999999999999 1.7871000000000001,1.7873999999999999 c0.987,0 1.7873,-0.8003 1.7873,-1.7873999999999999 l0,-6.599600000000001 c0.5412,-0.2685 0.9602,-0.7343000000000001 1.1682000000000001,-1.3018 l0.41100000000000003,-1.1188 l5.033,1.8469000000000002 c0.06600000000000002,0.024200000000000003 0.135,0.036500000000000005 0.20500000000000002,0.036500000000000005 c0.25,0 0.47400000000000003,-0.15580000000000002 0.56,-0.3903000000000001 l0.22300000000000003,-0.6083000000000001 c1.939,0.36480000000000007 3.806,-0.911 4.17,-2.8494 c0.135,-0.7163 0.04800000000000001,-1.4566 -0.25,-2.1216 l3.611,-1.8544 c0.29300000000000004,-0.15000000000000002 0.40900000000000003,-0.509 0.259,-0.8018000000000001 c-0.06800000000000002,-0.133 -0.18400000000000002,-0.23550000000000001 -0.32400000000000007,-0.2872 l-0.003000000000000001,0.0017000000000000006 zm-17.4463,9.3805 l0.49330000000000007,0.17880000000000001 c0.22450000000000003,0.08050000000000002 0.46,0.1267 0.6982000000000002,0.137 l0,2.1816 l-1.1915,0 l0,-2.4974 zm-12.5289,8.455 l-1.2106,0 l0,-8.3405 l1.2106,0 l0,8.3405 zm2.3828,-3.5745 c-0.0010000000000000002,0.7571000000000001 -0.47800000000000004,1.4319000000000002 -1.1915,1.6854 l0,-4.5623000000000005 c0.7135,0.2533 1.1905000000000001,0.9281 1.1915,1.6854 l0,1.1915 zm1.2101,-1.1915 l10.1275,0 l0,1.1915 l-10.1275,0 l0,-1.1915 zm9.5318,3.5744 c-0.32910000000000006,0 -0.5958000000000001,-0.26680000000000004 -0.5958000000000001,-0.5958000000000001 l0,-0.5958000000000001 l1.1915,0 l0,0.5958000000000001 c0,0.32900000000000007 -0.2667,0.5958000000000001 -0.5957000000000001,0.5958000000000001 zm2.2485,-10.0263 l-0.4112,1.1188 c-0.22700000000000004,0.6171000000000001 -0.9113,0.9336000000000001 -1.5288,0.7071000000000001 l-1.1206,-0.41050000000000003 c-0.6175,-0.22680000000000003 -0.9345,-0.9113 -0.7078000000000001,-1.5291000000000001 c0,0 0,0 0,-0.0003000000000000001 l0.41130000000000005,-1.118 l3.0197,1.1085 l0.3374000000000001,0.12350000000000001 zm6.003,0.9353 l-15.0997,-5.5448 l0.41130000000000005,-1.1188 l8.9474,3.2857 c0.21200000000000002,0.07700000000000001 0.44900000000000007,0.028800000000000003 0.6140000000000001,-0.1253 l1.6720000000000002,-1.5738 l4.687,1.7216 l-1.232,3.3554 zm4.028,-2.3283 c-0.37700000000000006,1.0178 -1.393,1.6538000000000002 -2.473,1.549 l0.921,-2.5076 l1.5030000000000001,-0.7743 c0.23500000000000001,0.5505 0.253,1.1701 0.04900000000000001,1.7329 zm-2.011,-2.0599 c-0.031000000000000007,0.0027000000000000006 -0.06300000000000001,0.008200000000000002 -0.09300000000000003,0.016500000000000004 l-5.312,-1.9504000000000001 c-0.21200000000000002,-0.07770000000000002 -0.44900000000000007,-0.029500000000000005 -0.6140000000000001,0.1251 l-1.673,1.574 l-11.9583,-4.3912 l2.2586,-6.1498 l22.2907,8.2582 l-4.899,2.5176 z"/>
   <path id="svg_4" stroke-linecap="round" stroke="#E3B873" d="m55.38574602050781,8.760992391967772 l-0.5254,1.4199000000000002 m2.8152,-0.5799000000000001 l-0.5255,1.4199000000000002 m2.7475,-0.5934 l-0.5255,1.4199000000000002 "/>
  </g>
 </g>
</svg>