<svg width="41" height="35" viewBox="0 0 41 35" fill="none" xmlns="http://www.w3.org/2000/svg">
<path d="M20.8396 24.7205C20.4614 24.7205 20.1526 25.0197 20.1526 25.3915V26.7162C20.1526 27.088 20.4614 27.3872 20.8396 27.3872C21.2178 27.3872 21.5265 27.088 21.5265 26.7162V25.3915C21.5265 25.0197 21.2178 24.7205 20.8396 24.7205Z" fill="white" stroke="white" stroke-width="0.1"/>
<path d="M37.5581 15.4429L37.5581 15.4429C37.1069 13.285 36.0951 11.251 34.6321 9.56032C33.2237 7.93272 31.4214 6.65145 29.4118 5.8438C29.0828 4.50778 28.3927 3.13016 27.0386 2.09277C25.7205 1.08301 24.3931 0.888358 24.3338 0.880039L24.3338 0.88003C24.1374 0.852736 23.9377 0.909724 23.7872 1.03702C23.6366 1.16435 23.5498 1.34931 23.5498 1.54434V4.84788H21.3254C20.736 2.93378 18.9142 1.53577 16.7634 1.53577C14.5652 1.53577 12.7096 2.99572 12.1632 4.97484C9.01519 5.40058 6.11974 6.8913 3.96924 9.2048L4.00166 9.23493L3.96924 9.2048C1.69996 11.6463 0.45 14.8071 0.45 18.1049C0.45 25.4946 4.38387 31.5048 5.5891 33.1703C5.97046 33.6974 6.59453 34.0116 7.2582 34.0116H9.96922C11.0961 34.0116 12.015 33.1175 12.015 32.0158V31.2141C12.6849 31.3118 13.3649 31.3619 14.0457 31.3619H20.1528V32.0158C20.1528 33.1175 21.0717 34.0116 22.1986 34.0116H25.1765C26.134 34.0116 26.9756 33.3492 27.1767 32.4342L27.4969 30.9777C31.673 29.9761 35.0324 27.1196 36.6959 23.413H39.1837C39.9359 23.413 40.55 22.8161 40.55 22.0796V16.7802C40.55 16.4235 40.4075 16.0883 40.1493 15.8366C39.8912 15.585 39.5482 15.4466 39.1838 15.4466H39.1837H39.1837H39.1837H39.1836H39.1836H39.1836H39.1835L37.5592 15.4468C37.5587 15.4455 37.5584 15.4442 37.5581 15.4429ZM39.1762 22.0294H39.1761V22.0709H37.2111C37.5469 21.0273 37.7538 19.9314 37.8138 18.8021C37.8337 18.4308 37.5411 18.1163 37.1633 18.0972C36.7857 18.0785 36.4615 18.3612 36.4418 18.7325C36.1746 23.7551 32.6861 28.0487 27.8218 29.4989L28.6936 25.5326C28.7736 25.169 28.5358 24.8129 28.1656 24.7356C27.7961 24.6581 27.4301 24.8878 27.3503 25.2509L25.8334 32.1524C25.7678 32.451 25.4919 32.6695 25.1765 32.6695H22.1984C21.8268 32.6695 21.5266 32.375 21.5266 32.0157V29.366C21.5266 28.9942 21.2178 28.6949 20.8396 28.6949C20.4614 28.6949 20.1527 28.9942 20.1527 29.366V30.0198H14.0455C13.3637 30.0198 12.6831 29.9638 12.0148 29.855V25.3915C12.0148 25.0197 11.7061 24.7205 11.3279 24.7205C10.9497 24.7205 10.6409 25.0197 10.6409 25.3915V32.0158C10.6409 32.375 10.3407 32.6696 9.96906 32.6696H7.2582C7.03553 32.6696 6.83663 32.5695 6.71107 32.3958L6.71106 32.3958C5.56414 30.8106 1.82391 25.0967 1.82391 18.1049C1.82391 15.1415 2.94692 12.3011 4.98639 10.107C6.84008 8.11255 9.30923 6.79836 12.0037 6.3562C12.0187 6.74418 12.0834 7.12774 12.195 7.49752H12.0074C11.6292 7.49752 11.3205 7.79675 11.3205 8.16855C11.3205 8.54035 11.6292 8.83958 12.0074 8.83958H21.5191C21.8974 8.83958 22.2061 8.54035 22.2061 8.16855C22.2061 7.79675 21.8974 7.49752 21.5191 7.49752H21.3315C21.4592 7.07497 21.5258 6.63451 21.5266 6.18986H23.5498V7.50608C23.5498 7.87788 23.8585 8.17711 24.2367 8.17711C24.6149 8.17711 24.9237 7.87788 24.9237 7.50608V2.43206C25.5183 2.66126 26.343 3.10973 27.0288 3.96519C27.7404 4.85274 28.3056 6.18215 28.3056 8.16862C28.3056 8.54043 28.6144 8.83965 28.9926 8.83965C29.3708 8.83965 29.6795 8.54043 29.6795 8.16862C29.6795 7.93074 29.6716 7.68088 29.6536 7.42302C31.1527 8.14788 32.4978 9.17296 33.5829 10.4269C34.8977 11.9463 35.8068 13.7737 36.212 15.7115C36.3426 16.3364 36.9049 16.789 37.5487 16.7889L39.1762 16.7888V22.0294ZM16.7633 2.87791C18.6334 2.87791 20.1527 4.3611 20.1527 6.18145C20.1527 6.63627 20.0552 7.08455 19.871 7.49767L13.6555 7.49767C13.4714 7.0844 13.3737 6.63626 13.3737 6.18145C13.3737 4.36103 14.8931 2.87791 16.7633 2.87791Z" fill="white" stroke="white" stroke-width="0.1"/>
<path d="M28.4116 15.883L28.4116 15.883C28.815 14.8282 29.8808 14.1219 31.0621 14.1219C32.2433 14.1219 33.3093 14.8283 33.7125 15.883C33.7125 15.883 33.7125 15.883 33.7125 15.883L33.6658 15.9008C33.7887 16.2221 33.6211 16.5798 33.2915 16.6996L28.4116 15.883ZM28.4116 15.883C28.2784 16.2313 28.4605 16.6176 28.8155 16.7466M28.4116 15.883L28.8155 16.7466M28.8155 16.7466C29.17 16.8756 29.5657 16.7002 29.6986 16.3526L28.8155 16.7466ZM33.0691 16.7889C33.1488 16.7889 33.2297 16.7753 33.3086 16.7466L29.6986 16.3526C29.9011 15.823 30.4479 15.4639 31.062 15.4639C31.6761 15.4639 32.223 15.823 32.4255 16.3526C32.5289 16.623 32.7913 16.7889 33.0691 16.7889Z" fill="white" stroke="white" stroke-width="0.1"/>
<path d="M19.7116 18.5179C19.0601 18.0761 18.2201 17.8055 17.4502 17.5931V14.5142C18.0451 14.5914 18.5484 14.7637 18.9047 14.9764C19.2758 15.1981 19.4733 15.4544 19.4733 15.6828C19.4733 16.0547 19.7821 16.3539 20.1603 16.3539C20.5385 16.3539 20.8472 16.0547 20.8472 15.6828C20.8472 15.0273 20.4732 14.4411 19.8589 13.9979C19.254 13.5616 18.4127 13.2605 17.4502 13.1627V13.1367C17.4502 12.7649 17.1414 12.4656 16.7632 12.4656C16.385 12.4656 16.0763 12.7649 16.0763 13.1367V13.1627C15.1138 13.2605 14.2724 13.5616 13.6676 13.9979C13.0533 14.4411 12.6792 15.0273 12.6792 15.6828C12.6792 16.6104 13.1508 17.2413 13.8149 17.6917C14.4663 18.1335 15.3064 18.4042 16.0763 18.6165V21.6954C15.4814 21.6183 14.9781 21.446 14.6218 21.2332C14.2506 21.0115 14.0532 20.7552 14.0532 20.5268C14.0532 20.155 13.7444 19.8557 13.3662 19.8557C12.988 19.8557 12.6792 20.155 12.6792 20.5268C12.6792 21.1824 13.0533 21.7685 13.6676 22.2117C14.2724 22.6481 15.1138 22.9491 16.0763 23.0469V23.073C16.0763 23.4448 16.385 23.744 16.7632 23.744C17.1414 23.744 17.4502 23.4448 17.4502 23.073V23.0469C18.4127 22.9491 19.254 22.6481 19.8589 22.2117C20.4732 21.7685 20.8472 21.1824 20.8472 20.5268C20.8472 19.5992 20.3757 18.9683 19.7116 18.5179ZM16.0763 14.5142V17.2104C15.3286 16.9781 14.8248 16.7569 14.5067 16.5155C14.1827 16.2698 14.0532 16.0049 14.0532 15.6828C14.0532 15.4544 14.2506 15.1981 14.6218 14.9764C14.9781 14.7637 15.4814 14.5914 16.0763 14.5142ZM18.9047 21.2333C18.5484 21.446 18.045 21.6183 17.4502 21.6955V18.9993C18.1979 19.2316 18.7016 19.4528 19.0198 19.6942C19.3437 19.9399 19.4733 20.2048 19.4733 20.5268C19.4733 20.7553 19.2758 21.0116 18.9047 21.2333Z" fill="white" stroke="white" stroke-width="0.1"/>
</svg>
