<svg width="114" height="28" viewBox="0 0 114 28" fill="none" xmlns="http://www.w3.org/2000/svg">
<rect x="0.000610352" y="13" width="32" height="1.54334" rx="0.771672" fill="#E3B873"/>
<rect x="82.0006" y="13" width="32" height="1.54334" rx="0.771672" fill="#E3B873"/>
<path d="M67.4056 21.1437C66.8241 20.7344 66.1529 20.5146 65.475 20.4787C62.92 18.8056 61.2463 17.5498 60.2692 16.5726L57.2675 13.571L59.089 11.532C59.4342 11.7269 59.805 11.8553 60.1759 11.9083C60.4557 11.9549 60.6423 11.9549 60.8289 11.9549C61.2021 11.9549 61.2953 11.9549 61.6685 12.2814C61.4819 12.4213 61.3886 12.6545 61.3886 12.8877C61.3886 13.1209 61.4819 13.4008 61.6685 13.5874L63.301 15.2199C63.5342 15.4998 63.9073 15.6397 64.2805 15.6397C64.6537 15.6397 65.0268 15.4998 65.26 15.1733L68.5717 11.8616C68.8516 11.6283 68.9915 11.2552 68.9915 10.8821C68.9915 10.5089 68.8516 10.1824 68.5717 9.90257L66.9392 8.27003C66.7526 8.08348 66.5194 7.99018 66.2861 7.99018C66.0529 7.99018 65.8197 8.13011 65.6331 8.27003C65.26 7.94355 65.26 7.85024 65.26 7.47708C65.26 7.29053 65.26 7.05729 65.1667 6.77743C65.0734 6.12441 64.7469 5.47144 64.2338 4.95835L62.5546 3.27919C61.5751 2.29968 61.1087 1.83327 59.8493 1.27355C57.144 0.0141792 54.3921 0.247414 50.3807 2.0665C50.1475 2.15981 50.0542 2.34636 50.1009 2.57959C50.1475 2.81283 50.3341 2.95276 50.5673 2.95276H51.1736C53.2259 2.95276 54.2987 2.95276 56.1645 4.81847C56.9814 5.63542 57.005 6.88806 56.273 7.80969C56.1744 7.82455 56.0993 7.86883 56.0245 7.94355L53.9526 10.2561L52.3864 8.68988C50.6649 6.96841 49.4541 5.33971 48.5222 3.52614C48.4733 2.60846 48.105 1.74985 47.4422 1.08705C46.6493 0.294148 45.5299 -0.0790161 44.4104 0.0142886C44.2705 0.0609136 44.1306 0.154218 44.0839 0.247523C43.9906 0.387453 43.9906 0.574008 44.0839 0.713937L45.3899 3.04612C45.1101 3.65246 44.4571 4.02563 43.8041 3.979L42.4514 1.74007C42.4048 1.60014 42.2182 1.50684 42.0783 1.50684C41.9383 1.46021 41.7984 1.55346 41.7051 1.69339C40.5856 3.37255 41.0054 5.61142 42.6846 6.77749C43.2631 7.19072 43.9149 7.42051 44.575 7.46763C44.5823 7.47074 44.5893 7.47457 44.5969 7.47714C46.416 8.41002 48.0485 9.62271 49.7743 11.3485L51.4802 13.0156L41.5652 24.0822C41.192 24.4554 41.0055 24.9684 41.0055 25.4815C41.0055 25.9946 41.192 26.461 41.5652 26.8342L42.2182 27.4872C42.5914 27.8137 43.0578 28.0003 43.5242 28.0003C43.9906 28.0003 44.5037 27.8137 44.8769 27.4406L54.7806 16.3548L57.6571 19.2313C58.6357 20.2099 59.8937 21.9335 61.5705 24.4483C61.6306 25.346 61.998 26.1842 62.648 26.8342C63.3476 27.5338 64.2805 27.907 65.26 27.907C65.3999 27.907 65.5399 27.907 65.6332 27.907C65.7731 27.907 65.913 27.8137 66.0063 27.6738C66.0996 27.5338 66.0996 27.3473 66.0063 27.2073L64.6537 24.9218C64.9802 24.3155 65.5866 23.9423 66.2862 23.989L67.5922 26.2278C67.6388 26.3678 67.8254 26.4611 67.9654 26.4611C68.1519 26.4144 68.2918 26.3678 68.3851 26.2278C69.5045 24.5486 69.0381 22.3097 67.4056 21.1437ZM56.7709 4.07225C55.2783 2.62633 54.1589 2.15986 52.8995 2.01993C55.5582 1.18035 57.5172 1.22698 59.4762 2.11323C60.5957 2.57965 60.9688 2.95281 61.9483 3.93232L63.6275 5.61148C64.0006 5.98464 64.2338 6.45106 64.2805 6.91747C64.3271 7.15071 64.3271 7.33726 64.3271 7.47719C64.3271 7.99028 64.3738 8.36339 64.9335 8.92311C65.12 9.10967 65.3999 9.20297 65.6331 9.20297C65.913 9.20297 66.1462 9.10967 66.2861 8.92311L67.9187 10.5556C68.012 10.6489 68.0586 10.7422 68.0586 10.8821C68.0586 11.0221 68.012 11.1154 67.9187 11.2086L64.607 14.5203C64.4204 14.7069 64.1406 14.7069 63.954 14.5203L62.3214 12.8878C62.508 12.7478 62.6013 12.5146 62.5547 12.2347C62.5547 12.0015 62.4614 11.7217 62.2748 11.5351C61.7151 10.9754 61.3419 10.9288 60.8289 10.9288C60.689 10.9288 60.5024 10.9288 60.2692 10.8821C59.7561 10.8355 59.3363 10.6023 58.9632 10.2291L56.9575 8.22346C57.9836 6.96415 57.8904 5.19169 56.7709 4.07225ZM42.1249 2.95281L43.1044 4.63197C43.1977 4.7719 43.3377 4.8652 43.4776 4.8652H43.7108C44.7837 4.91183 45.7632 4.35211 46.2296 3.41928L46.3229 3.18605C46.4162 3.04612 46.4162 2.90619 46.3229 2.76626L45.2967 0.993797C45.8564 1.0871 46.3695 1.36696 46.7893 1.78675C47.2702 2.30772 47.5781 2.96659 47.5963 3.67433C47.5873 3.71024 47.5822 3.74888 47.5822 3.79245C47.5822 4.00846 47.5561 4.21918 47.5079 4.42229C47.3319 5.09767 46.91 5.68653 46.3228 6.078C45.3899 6.68435 44.1306 6.68435 43.1977 6.03138C42.2182 5.33162 41.7984 4.07225 42.1249 2.95281ZM50.4274 10.6956C49.0281 9.24965 47.6288 8.13021 46.1362 7.24396C46.3694 7.15065 46.6493 7.01072 46.8825 6.87079C47.5821 6.40438 48.0485 5.79798 48.3284 5.0517C49.2146 6.54431 50.3341 7.9436 51.7333 9.3429L53.3354 10.945L52.0791 12.3473L50.4274 10.6956ZM44.2239 26.7409C43.8507 27.114 43.2444 27.1607 42.8712 26.7875L42.2182 26.1812C42.0316 25.9946 41.9383 25.7614 41.9383 25.5281C41.9383 25.2483 42.0316 25.015 42.2648 24.7819L42.529 24.4863L43.1977 25.155C43.291 25.2483 43.3842 25.2949 43.5242 25.2949C43.6641 25.2949 43.7574 25.2483 43.8507 25.155C44.0372 24.9685 44.0372 24.6886 43.8507 24.502L43.1453 23.7967L43.7617 23.107L44.5037 23.849C44.597 23.9423 44.6902 23.9889 44.8302 23.9889C44.9701 23.9889 45.0634 23.9423 45.1567 23.849C45.3432 23.6624 45.3432 23.3826 45.1567 23.1959L44.3782 22.4174L56.3757 8.99439L58.3348 10.9534L56.4099 13.107C56.3549 13.1302 56.3063 13.1658 56.2578 13.2143L54.3921 15.3133C54.3388 15.3665 54.3013 15.4276 54.2785 15.4917L44.2239 26.7409ZM55.4188 15.6403L56.6953 14.2115L59.7094 17.2256C60.549 18.1119 61.9949 19.2313 64.0938 20.6306C63.814 20.7239 63.5341 20.8638 63.2543 21.0504C62.6756 21.4121 62.2657 21.9142 61.9801 22.4694C61.9759 22.4773 61.972 22.4854 61.9679 22.4933C61.951 22.5267 61.9344 22.5603 61.9184 22.5941C61.8954 22.6419 61.8735 22.6903 61.8526 22.7392C61.8382 22.7722 61.824 22.8053 61.8105 22.8386C61.8086 22.8434 61.8067 22.8482 61.8048 22.853C61.7901 22.8895 61.7755 22.926 61.7617 22.9628C61.4968 22.5742 61.2419 22.2075 60.9967 21.862L61.6218 21.237C61.8083 21.0504 61.8083 20.7706 61.6218 20.584C61.4352 20.3974 61.1554 20.3974 60.9688 20.584L60.4488 21.1039C60.255 20.8409 60.0677 20.5928 59.8872 20.3596L60.3158 19.9309C60.5023 19.7444 60.5023 19.4645 60.3158 19.2779C60.1292 19.0914 59.8494 19.0914 59.6628 19.2779L59.3067 19.634C58.9639 19.2208 58.6477 18.8692 58.3568 18.5783L55.4188 15.6403ZM67.9186 24.9684L66.9391 23.2893C66.8458 23.1493 66.7059 23.056 66.566 23.056H66.3327C65.2599 22.9627 64.2804 23.5691 63.814 24.5019L63.7207 24.7352C63.6274 24.8751 63.6274 25.015 63.7207 25.155L64.7468 26.9274C64.1871 26.8341 63.674 26.5543 63.2542 26.1345C62.7824 25.6233 62.4775 24.9795 62.4488 24.2871C62.4568 24.253 62.4613 24.2164 62.4613 24.1755C62.4613 23.5846 62.6488 23.0314 62.9758 22.5628C63.1766 22.2832 63.4279 22.0385 63.7206 21.8433C64.187 21.5168 64.7001 21.3769 65.2599 21.3769C65.8196 21.3769 66.3793 21.5635 66.8457 21.89C67.8254 22.5896 68.2452 23.849 67.9186 24.9684Z" fill="#E3B873"/>
</svg>
